# xmcd
#
# Track frame offsets:
#	150
#	15010
#	31231
#	46008
#	58166
#	78469
#	91328
#	105116
#	135851
#	150429
#	167722
#	184865
#	198393
#	209674
#	220722
#	231696
#	249447
#
# Disc length: 3641 seconds
#
# Revision: 3
# Processed by: cddbd v1.5.2PL0 Copyright (c) Steve Scherf et al.
# Submitted via: EZCDAudioConverter 2.1.7.1
#
DISCID=d10e3711
DTITLE=Gary Numan - The Pleasure Principle 2/2
DYEAR=1979
DGENRE=
TTITLE0=Airplane [Demo]
TTITLE1=Metal [Demo]
TTITLE2=Complex [Demo]
TTITLE3=Films [Demo]
TTITLE4=M.E. [Demo]
TTITLE5=Tracks [Out-Take Mix]
TTITLE6=Observer [Demo]
TTITLE7=Conversation [Demo 2]
TTITLE8=Cars [Demo]
TTITLE9=Engineers [Demo]
TTITLE10=Random [2009 Remaster]
TTITLE11=Oceans [2009 Remaster]
TTITLE12=Asylum [2009 Remaster]
TTITLE13=Photograph [2009 Remaster]
TTITLE14=Gymnopedie No. 1 [Demo]
TTITLE15=Conversation [Demo 1]
TTITLE16=M.E. [Out-Take Mix]
EXTD=
EXTT0=
EXTT1=
EXTT2=
EXTT3=
EXTT4=
EXTT5=
EXTT6=
EXTT7=
EXTT8=
EXTT9=
EXTT10=
EXTT11=
EXTT12=
EXTT13=
EXTT14=
EXTT15=
EXTT16=
PLAYORDER=
